<svg xmlns="http://www.w3.org/2000/svg" width="48" height="32"><path fill="#515b60" d="M0 24h48v8H0z"/><path fill="#e2c89a" d="M2 14h6v12h-6z"/><path fill="#ffda79" d="M4 5h2v3h2v5h-6V8h2z"/><path fill="#fff0bb" d="M4 9h2v4h-2z"/><path fill="#e2c89a" d="M11 14h6v12h-6z"/><path fill="#ffda79" d="M13 5h2v3h2v5h-6V8h2z"/><path fill="#fff0bb" d="M13 9h2v4h-2z"/><path fill="#e2c89a" d="M20 14h6v12h-6z"/><path fill="#ffda79" d="M22 5h2v3h2v5h-6V8h2z"/><path fill="#fff0bb" d="M22 9h2v4h-2z"/><path fill="#e2c89a" d="M29 14h6v12h-6z"/><path fill="#ffda79" d="M31 5h2v3h2v5h-6V8h2z"/><path fill="#fff0bb" d="M31 9h2v4h-2z"/><path fill="#e2c89a" d="M38 14h6v12h-6z"/><path fill="#ffda79" d="M40 5h2v3h2v5h-6V8h2z"/><path fill="#fff0bb" d="M40 9h2v4h-2z"/></svg>