<svg xmlns="http://www.w3.org/2000/svg" width="32" height="32" viewBox="0 0 32 32" shape-rendering="crispEdges"><path fill="#36334d" d="M0 0h32v32h-32z"/><path fill="#1b2032" d="M0 0h32v1h-32z"/><path fill="#1b2032" d="M8 0h1v8h-1z"/><path fill="#57566e" d="M10 2h10v1h-10z"/><path fill="#8891a3" d="M18 5h4v1h-4z"/><path fill="#1b2032" d="M24 0h1v8h-1z"/><path fill="#57566e" d="M26 2h10v1h-10z"/><path fill="#8891a3" d="M34 5h4v1h-4z"/><path fill="#1b2032" d="M0 8h32v1h-32z"/><path fill="#1b2032" d="M0 8h1v8h-1z"/><path fill="#57566e" d="M2 10h10v1h-10z"/><path fill="#8891a3" d="M10 13h4v1h-4z"/><path fill="#1b2032" d="M16 8h1v8h-1z"/><path fill="#57566e" d="M18 10h10v1h-10z"/><path fill="#8891a3" d="M26 13h4v1h-4z"/><path fill="#1b2032" d="M0 16h32v1h-32z"/><path fill="#1b2032" d="M8 16h1v8h-1z"/><path fill="#57566e" d="M10 18h10v1h-10z"/><path fill="#8891a3" d="M18 21h4v1h-4z"/><path fill="#1b2032" d="M24 16h1v8h-1z"/><path fill="#57566e" d="M26 18h10v1h-10z"/><path fill="#8891a3" d="M34 21h4v1h-4z"/><path fill="#1b2032" d="M0 24h32v1h-32z"/><path fill="#1b2032" d="M0 24h1v8h-1z"/><path fill="#57566e" d="M2 26h10v1h-10z"/><path fill="#8891a3" d="M10 29h4v1h-4z"/><path fill="#1b2032" d="M16 24h1v8h-1z"/><path fill="#57566e" d="M18 26h10v1h-10z"/><path fill="#8891a3" d="M26 29h4v1h-4z"/><path stroke="#b6a776" fill="none" d="M13 3h6v5h-6zm3 5v3m-4-1h8"/></svg>